<svg xmlns="http://www.w3.org/2000/svg" version="1.1" xmlns:xlink="http://www.w3.org/1999/xlink" xmlns:svgjs="http://svgjs.dev/svgjs" viewBox="0 0 5.660588976141577 7.8289163922486384"><g transform="matrix(1,0,0,1,0.5532944880707884,5.047174176905123)"><rect width="5.660588976141577" height="7.8289163922486384" x="-0.5532944880707883" y="-5.047174176905123" fill="#202020"></rect><g><path d=" M 1.176 0.10349999999999993 L 1.176 1.1415 L 1.0395 1.1415 L 1.0395 0.36749999999999994 L 0.6945 1.1415 L 0.5985 1.1415 L 0.252 0.366 L 0.252 1.1415 L 0.1155 1.1415 L 0.1155 0.10349999999999993 L 0.2625 0.10349999999999993 L 0.6465 0.9615 L 1.0305 0.10349999999999993 Z M 1.4925 0.18599999999999994 Q 1.4535 0.18599999999999994 1.4264999999999999 0.15899999999999992 Q 1.3995 0.1319999999999999 1.3995 0.09299999999999997 Q 1.3995 0.053999999999999826 1.4264999999999999 0.026999999999999913 Q 1.4535 0 1.4925 0 Q 1.53 0 1.55625 0.026999999999999913 Q 1.5825 0.053999999999999826 1.5825 0.09299999999999997 Q 1.5825 0.1319999999999999 1.55625 0.15899999999999992 Q 1.53 0.18599999999999994 1.4925 0.18599999999999994 Z M 1.5585 0.3194999999999999 L 1.5585 1.1415 L 1.422 1.1415 L 1.422 0.3194999999999999 Z M 1.9725000000000001 0.43199999999999994 L 1.9725000000000001 0.9165 Q 1.9725000000000001 0.9764999999999999 1.9980000000000002 1.00125 Q 2.0235000000000003 1.026 2.0865 1.026 L 2.1870000000000003 1.026 L 2.1870000000000003 1.1415 L 2.064 1.1415 Q 1.9500000000000002 1.1415 1.8930000000000002 1.089 Q 1.836 1.0365 1.836 0.9165 L 1.836 0.43199999999999994 L 1.7295 0.43199999999999994 L 1.7295 0.3194999999999999 L 1.836 0.3194999999999999 L 1.836 0.11250000000000004 L 1.9725000000000001 0.11250000000000004 L 1.9725000000000001 0.3194999999999999 L 2.1870000000000003 0.3194999999999999 L 2.1870000000000003 0.43199999999999994 Z M 2.775 0.3045 Q 2.8680000000000003 0.3045 2.943 0.34424999999999994 Q 3.0180000000000002 0.3839999999999999 3.06075 0.4634999999999999 Q 3.1035 0.5429999999999999 3.1035 0.657 L 3.1035 1.1415 L 2.9685 1.1415 L 2.9685 0.6764999999999999 Q 2.9685 0.5535 2.907 0.48824999999999996 Q 2.8455 0.42299999999999993 2.739 0.42299999999999993 Q 2.6310000000000002 0.42299999999999993 2.56725 0.49049999999999994 Q 2.5035 0.5579999999999999 2.5035 0.6869999999999999 L 2.5035 1.1415 L 2.367 1.1415 L 2.367 0.03149999999999986 L 2.5035 0.03149999999999986 L 2.5035 0.4365 Q 2.544 0.37349999999999994 2.61525 0.33899999999999997 Q 2.6865 0.3045 2.775 0.3045 Z M 3.4785000000000004 0.45299999999999996 Q 3.5145 0.38249999999999995 3.5812500000000003 0.3434999999999999 Q 3.648 0.3045 3.744 0.3045 L 3.744 0.4454999999999999 L 3.708 0.4454999999999999 Q 3.4785000000000004 0.4454999999999999 3.4785000000000004 0.6944999999999999 L 3.4785000000000004 1.1415 L 3.342 1.1415 L 3.342 0.3194999999999999 L 3.4785000000000004 0.3194999999999999 L 3.4785000000000004 0.45299999999999996 Z M 3.987 0.18599999999999994 Q 3.948 0.18599999999999994 3.9210000000000003 0.15899999999999992 Q 3.894 0.1319999999999999 3.894 0.09299999999999997 Q 3.894 0.053999999999999826 3.9210000000000003 0.026999999999999913 Q 3.948 0 3.987 0 Q 4.0245 0 4.05075 0.026999999999999913 Q 4.077 0.053999999999999826 4.077 0.09299999999999997 Q 4.077 0.1319999999999999 4.05075 0.15899999999999992 Q 4.0245 0.18599999999999994 3.987 0.18599999999999994 Z M 4.053 0.3194999999999999 L 4.053 1.1415 L 3.9165 1.1415 L 3.9165 0.3194999999999999 Z M 4.437 0.03149999999999986 L 4.437 1.1415 L 4.3005 1.1415 L 4.3005 0.03149999999999986 Z" fill="#ffffff" fill-rule="nonzero"></path></g><g><path d=" M 0.3795000000000007 2.031947727272727 Q 0.3706363636363643 2.031947727272727 0.365522727272728 2.0271749999999997 Q 0.3604090909090916 2.0224022727272724 0.3583636363636371 2.013538636363636 L 0.27040909090909165 1.5758113636363635 Q 0.2697272727272735 1.5730840909090908 0.2697272727272735 1.5710386363636362 Q 0.2697272727272735 1.5689931818181817 0.2697272727272735 1.5683113636363635 Q 0.2697272727272735 1.562856818181818 0.2738181818181825 1.558765909090909 Q 0.27790909090909166 1.5546749999999998 0.2833636363636371 1.5546749999999998 L 0.31881818181818256 1.5546749999999998 Q 0.33313636363636434 1.5546749999999998 0.3351818181818189 1.566265909090909 L 0.40472727272727343 1.9180840909090908 L 0.4783636363636371 1.6767204545454544 Q 0.4804090909090916 1.6705840909090908 0.485522727272728 1.6654704545454544 Q 0.49063636363636437 1.660356818181818 0.500181818181819 1.660356818181818 L 0.5254090909090916 1.660356818181818 Q 0.5356363636363644 1.660356818181818 0.5404090909090916 1.6654704545454544 Q 0.5451818181818189 1.6705840909090908 0.5465454545454552 1.6767204545454544 L 0.6208636363636371 1.9180840909090908 L 0.6897272727272734 1.566265909090909 Q 0.691772727272728 1.5546749999999998 0.706772727272728 1.5546749999999998 L 0.7422272727272734 1.5546749999999998 Q 0.7476818181818189 1.5546749999999998 0.7517727272727279 1.558765909090909 Q 0.7558636363636371 1.562856818181818 0.7558636363636371 1.5683113636363635 Q 0.7558636363636371 1.5689931818181817 0.755522727272728 1.5710386363636362 Q 0.7551818181818188 1.5730840909090908 0.7551818181818188 1.5758113636363635 L 0.6672272727272734 2.013538636363636 Q 0.6651818181818189 2.0224022727272724 0.6600681818181825 2.0271749999999997 Q 0.6549545454545461 2.031947727272727 0.6460909090909097 2.031947727272727 L 0.6195000000000007 2.031947727272727 Q 0.6099545454545461 2.031947727272727 0.6045000000000007 2.0271749999999997 Q 0.5990454545454553 2.0224022727272724 0.5970000000000006 2.0149022727272725 L 0.5124545454545462 1.7551295454545452 L 0.4285909090909098 2.0149022727272725 Q 0.4258636363636371 2.0224022727272724 0.42075000000000073 2.0271749999999997 Q 0.41563636363636436 2.031947727272727 0.40609090909090984 2.031947727272727 Z M 0.8676818181818189 2.031947727272727 Q 0.8601818181818189 2.031947727272727 0.8560909090909098 2.027515909090909 Q 0.8520000000000008 2.023084090909091 0.8520000000000008 2.016265909090909 L 0.8520000000000008 1.5710386363636362 Q 0.8520000000000008 1.5635386363636363 0.8560909090909098 1.5591068181818182 Q 0.8601818181818189 1.5546749999999998 0.8676818181818189 1.5546749999999998 L 1.1492727272727281 1.5546749999999998 Q 1.156772727272728 1.5546749999999998 1.160863636363637 1.5591068181818182 Q 1.1649545454545462 1.5635386363636363 1.1649545454545462 1.5710386363636362 L 1.1649545454545462 1.596947727272727 Q 1.1649545454545462 1.604447727272727 1.160863636363637 1.6085386363636363 Q 1.156772727272728 1.6126295454545452 1.1492727272727281 1.6126295454545452 L 0.9174545454545462 1.6126295454545452 L 0.9174545454545462 1.761947727272727 L 1.134272727272728 1.761947727272727 Q 1.141772727272728 1.761947727272727 1.1458636363636372 1.7663795454545452 Q 1.1499545454545461 1.7708113636363634 1.1499545454545461 1.7783113636363634 L 1.1499545454545461 1.803538636363636 Q 1.1499545454545461 1.810356818181818 1.1458636363636372 1.8147886363636363 Q 1.141772727272728 1.8192204545454544 1.134272727272728 1.8192204545454544 L 0.9174545454545462 1.8192204545454544 L 0.9174545454545462 1.9739931818181817 L 1.1547272727272735 1.9739931818181817 Q 1.1622272727272733 1.9739931818181817 1.1663181818181825 1.9780840909090907 Q 1.1704090909090916 1.9821749999999998 1.1704090909090916 1.9896749999999999 L 1.1704090909090916 2.016265909090909 Q 1.1704090909090916 2.023084090909091 1.1663181818181825 2.027515909090909 Q 1.1622272727272733 2.031947727272727 1.1547272727272735 2.031947727272727 Z M 1.2876818181818188 2.031947727272727 Q 1.2801818181818188 2.031947727272727 1.2760909090909098 2.027515909090909 Q 1.2720000000000007 2.023084090909091 1.2720000000000007 2.016265909090909 L 1.2720000000000007 1.5710386363636362 Q 1.2720000000000007 1.5635386363636363 1.2760909090909098 1.5591068181818182 Q 1.2801818181818188 1.5546749999999998 1.2876818181818188 1.5546749999999998 L 1.4745000000000006 1.5546749999999998 Q 1.5256363636363643 1.5546749999999998 1.558022727272728 1.5713795454545454 Q 1.5904090909090915 1.5880840909090908 1.6057500000000007 1.6167204545454545 Q 1.6210909090909098 1.6453568181818181 1.6210909090909098 1.6808113636363635 Q 1.6210909090909098 1.7087659090909089 1.6118863636363643 1.7288795454545454 Q 1.6026818181818188 1.7489931818181816 1.589045454545455 1.761606818181818 Q 1.5754090909090914 1.7742204545454543 1.5624545454545462 1.7810386363636361 Q 1.589045454545455 1.7939931818181816 1.6098409090909098 1.8233113636363636 Q 1.6306363636363643 1.8526295454545454 1.6306363636363643 1.8942204545454544 Q 1.6306363636363643 1.9317204545454545 1.6135909090909097 1.9630840909090908 Q 1.5965454545454552 1.994447727272727 1.5627954545454552 2.0131977272727273 Q 1.5290454545454553 2.031947727272727 1.4799545454545462 2.031947727272727 Z M 1.3388181818181826 1.9767204545454544 L 1.4710909090909097 1.9767204545454544 Q 1.5147272727272734 1.9767204545454544 1.5385909090909098 1.952856818181818 Q 1.5624545454545462 1.9289931818181816 1.5624545454545462 1.8942204545454544 Q 1.5624545454545462 1.8580840909090908 1.5385909090909098 1.8345613636363636 Q 1.5147272727272734 1.8110386363636362 1.4710909090909097 1.8110386363636362 L 1.3388181818181826 1.8110386363636362 Z M 1.3388181818181826 1.7564931818181817 L 1.464272727272728 1.7564931818181817 Q 1.5079090909090915 1.7564931818181817 1.5304090909090915 1.7363795454545454 Q 1.5529090909090915 1.716265909090909 1.5529090909090915 1.6814931818181817 Q 1.5529090909090915 1.6467204545454543 1.5304090909090915 1.6283113636363635 Q 1.5079090909090915 1.6099022727272727 1.464272727272728 1.6099022727272727 L 1.3388181818181826 1.6099022727272727 Z M 1.9238181818181823 2.031947727272727 Q 1.9163181818181823 2.031947727272727 1.9122272727272733 2.027515909090909 Q 1.9081363636363642 2.023084090909091 1.9081363636363642 2.016265909090909 L 1.9081363636363642 1.5710386363636362 Q 1.9081363636363642 1.5635386363636363 1.9122272727272733 1.5591068181818182 Q 1.9163181818181823 1.5546749999999998 1.9238181818181823 1.5546749999999998 L 2.07859090909091 1.5546749999999998 Q 2.148818181818182 1.5546749999999998 2.1917727272727276 1.5758113636363635 Q 2.234727272727273 1.596947727272727 2.2545000000000006 1.638197727272727 Q 2.2742727272727277 1.679447727272727 2.274954545454546 1.7394477272727271 Q 2.275636363636364 1.7701295454545454 2.275636363636364 1.7933113636363636 Q 2.275636363636364 1.8164931818181818 2.274954545454546 1.8464931818181816 Q 2.2735909090909097 1.9092204545454543 2.2541590909090914 1.9504704545454543 Q 2.234727272727273 1.9917204545454543 2.192795454545455 2.011834090909091 Q 2.1508636363636366 2.031947727272727 2.0820000000000007 2.031947727272727 Z M 1.974954545454546 1.9739931818181817 L 2.07859090909091 1.9739931818181817 Q 2.125636363636364 1.9739931818181817 2.1535909090909096 1.9610386363636363 Q 2.181545454545455 1.9480840909090906 2.1941590909090913 1.919447727272727 Q 2.2067727272727278 1.8908113636363635 2.207454545454546 1.8437659090909089 Q 2.2088181818181822 1.8233113636363636 2.2088181818181822 1.8079704545454545 Q 2.2088181818181822 1.7926295454545453 2.2088181818181822 1.7772886363636362 Q 2.2088181818181822 1.761947727272727 2.207454545454546 1.7421749999999998 Q 2.2060909090909098 1.6760386363636361 2.1760909090909095 1.6443340909090907 Q 2.1460909090909097 1.6126295454545452 2.075181818181819 1.6126295454545452 L 1.974954545454546 1.6126295454545452 Z M 2.4004090909090916 2.031947727272727 Q 2.3929090909090913 2.031947727272727 2.3888181818181824 2.027515909090909 Q 2.384727272727273 2.023084090909091 2.384727272727273 2.016265909090909 L 2.384727272727273 1.5710386363636362 Q 2.384727272727273 1.5635386363636363 2.3888181818181824 1.5591068181818182 Q 2.3929090909090913 1.5546749999999998 2.4004090909090916 1.5546749999999998 L 2.6820000000000004 1.5546749999999998 Q 2.6895000000000007 1.5546749999999998 2.6935909090909096 1.5591068181818182 Q 2.6976818181818185 1.5635386363636363 2.6976818181818185 1.5710386363636362 L 2.6976818181818185 1.596947727272727 Q 2.6976818181818185 1.604447727272727 2.6935909090909096 1.6085386363636363 Q 2.6895000000000007 1.6126295454545452 2.6820000000000004 1.6126295454545452 L 2.450181818181819 1.6126295454545452 L 2.450181818181819 1.761947727272727 L 2.6670000000000007 1.761947727272727 Q 2.6745000000000005 1.761947727272727 2.6785909090909095 1.7663795454545452 Q 2.682681818181819 1.7708113636363634 2.682681818181819 1.7783113636363634 L 2.682681818181819 1.803538636363636 Q 2.682681818181819 1.810356818181818 2.6785909090909095 1.8147886363636363 Q 2.6745000000000005 1.8192204545454544 2.6670000000000007 1.8192204545454544 L 2.450181818181819 1.8192204545454544 L 2.450181818181819 1.9739931818181817 L 2.6874545454545458 1.9739931818181817 Q 2.694954545454546 1.9739931818181817 2.699045454545455 1.9780840909090907 Q 2.7031363636363643 1.9821749999999998 2.7031363636363643 1.9896749999999999 L 2.7031363636363643 2.016265909090909 Q 2.7031363636363643 2.023084090909091 2.699045454545455 2.027515909090909 Q 2.694954545454546 2.031947727272727 2.6874545454545458 2.031947727272727 Z M 2.9581363636363642 2.038765909090909 Q 2.898818181818182 2.038765909090909 2.8585909090909096 2.020356818181818 Q 2.8183636363636366 2.0019477272727273 2.796886363636364 1.9729704545454543 Q 2.775409090909091 1.9439931818181817 2.774045454545455 1.911947727272727 Q 2.774045454545455 1.9064931818181816 2.7784772727272733 1.9020613636363635 Q 2.7829090909090914 1.8976295454545453 2.789045454545455 1.8976295454545453 L 2.8238181818181824 1.8976295454545453 Q 2.8320000000000003 1.8976295454545453 2.8360909090909097 1.9017204545454545 Q 2.8401818181818186 1.9058113636363634 2.841545454545455 1.911265909090909 Q 2.845636363636364 1.9276295454545453 2.8585909090909096 1.9436522727272725 Q 2.871545454545455 1.9596749999999998 2.8957500000000005 1.9702431818181816 Q 2.9199545454545457 1.9808113636363636 2.9581363636363642 1.9808113636363636 Q 3.016772727272728 1.9808113636363636 3.044386363636364 1.9600159090909088 Q 3.0720000000000005 1.9392204545454543 3.0720000000000005 1.9044477272727272 Q 3.0720000000000005 1.8805840909090907 3.0573409090909096 1.8659249999999998 Q 3.0426818181818187 1.851265909090909 3.0126818181818185 1.8396749999999997 Q 2.9826818181818187 1.8280840909090907 2.934954545454546 1.814447727272727 Q 2.8851818181818185 1.8001295454545452 2.852454545454546 1.7830840909090908 Q 2.819727272727273 1.7660386363636362 2.8037045454545457 1.7408113636363636 Q 2.787681818181819 1.7155840909090907 2.787681818181819 1.6767204545454544 Q 2.787681818181819 1.6399022727272725 2.807454545454546 1.610925 Q 2.8272272727272734 1.5819477272727271 2.864727272727273 1.5649022727272726 Q 2.902227272727273 1.547856818181818 2.9547272727272733 1.547856818181818 Q 2.9970000000000003 1.547856818181818 3.028704545454546 1.5591068181818182 Q 3.0604090909090913 1.5703568181818182 3.081545454545455 1.589106818181818 Q 3.1026818181818188 1.607856818181818 3.1135909090909095 1.6293340909090908 Q 3.1245000000000003 1.6508113636363635 3.1251818181818187 1.671265909090909 Q 3.1251818181818187 1.6760386363636361 3.121772727272728 1.6804704545454543 Q 3.118363636363637 1.6849022727272727 3.1108636363636366 1.6849022727272727 L 3.074727272727273 1.6849022727272727 Q 3.069954545454546 1.6849022727272727 3.0648409090909094 1.682175 Q 3.0597272727272733 1.679447727272727 3.0570000000000004 1.6719477272727272 Q 3.0529090909090915 1.6439931818181817 3.025636363636364 1.6249022727272726 Q 2.998363636363637 1.6058113636363636 2.9547272727272733 1.6058113636363636 Q 2.9104090909090914 1.6058113636363636 2.882795454545455 1.622856818181818 Q 2.8551818181818187 1.6399022727272725 2.8551818181818187 1.6760386363636361 Q 2.8551818181818187 1.6992204545454543 2.868136363636364 1.7145613636363635 Q 2.8810909090909096 1.7299022727272726 2.909045454545455 1.7414931818181816 Q 2.9370000000000003 1.7530840909090908 2.982 1.7660386363636362 Q 3.036545454545455 1.7810386363636361 3.071318181818182 1.7977431818181817 Q 3.1060909090909097 1.814447727272727 3.122795454545455 1.8393340909090907 Q 3.1395000000000004 1.8642204545454544 3.1395000000000004 1.9030840909090907 Q 3.1395000000000004 1.9460386363636362 3.1170000000000004 1.9763795454545452 Q 3.0945000000000005 2.0067204545454542 3.0539318181818187 2.0227431818181816 Q 3.013363636363637 2.038765909090909 2.9581363636363642 2.038765909090909 Z M 3.251318181818182 2.031947727272727 Q 3.243818181818182 2.031947727272727 3.239727272727273 2.027515909090909 Q 3.2356363636363636 2.023084090909091 3.2356363636363636 2.016265909090909 L 3.2356363636363636 1.5703568181818182 Q 3.2356363636363636 1.5635386363636363 3.239727272727273 1.5591068181818182 Q 3.243818181818182 1.5546749999999998 3.251318181818182 1.5546749999999998 L 3.287454545454546 1.5546749999999998 Q 3.2949545454545457 1.5546749999999998 3.2990454545454546 1.5591068181818182 Q 3.303136363636364 1.5635386363636363 3.303136363636364 1.5703568181818182 L 3.303136363636364 2.016265909090909 Q 3.303136363636364 2.023084090909091 3.2990454545454546 2.027515909090909 Q 3.2949545454545457 2.031947727272727 3.287454545454546 2.031947727272727 Z M 3.6024545454545454 2.038765909090909 Q 3.5417727272727273 2.038765909090909 3.499840909090909 2.016265909090909 Q 3.457909090909091 1.993765909090909 3.43575 1.952856818181818 Q 3.4135909090909093 1.911947727272727 3.4108636363636364 1.8567204545454543 Q 3.4101818181818184 1.8267204545454545 3.4101818181818184 1.7929704545454543 Q 3.4101818181818184 1.7592204545454544 3.4108636363636364 1.7285386363636361 Q 3.4135909090909093 1.6733113636363635 3.43575 1.6327431818181817 Q 3.457909090909091 1.592175 3.5001818181818183 1.570015909090909 Q 3.5424545454545457 1.547856818181818 3.6024545454545454 1.547856818181818 Q 3.650181818181818 1.547856818181818 3.685636363636364 1.5614931818181816 Q 3.7210909090909094 1.5751295454545453 3.743931818181818 1.5959249999999998 Q 3.7667727272727274 1.6167204545454545 3.7780227272727274 1.6392204545454545 Q 3.7892727272727273 1.6617204545454545 3.7899545454545454 1.678765909090909 Q 3.790636363636364 1.6849022727272727 3.786545454545455 1.6886522727272726 Q 3.7824545454545455 1.6924022727272725 3.7756363636363637 1.6924022727272725 L 3.735409090909091 1.6924022727272725 Q 3.7285909090909093 1.6924022727272725 3.725522727272727 1.6896749999999998 Q 3.7224545454545455 1.6869477272727271 3.719727272727273 1.6801295454545453 Q 3.713590909090909 1.6624022727272725 3.6996136363636367 1.6453568181818181 Q 3.685636363636364 1.6283113636363635 3.6621136363636366 1.6170613636363635 Q 3.638590909090909 1.6058113636363636 3.6024545454545454 1.6058113636363636 Q 3.547909090909091 1.6058113636363636 3.514840909090909 1.6351295454545454 Q 3.4817727272727272 1.6644477272727272 3.4790454545454548 1.731947727272727 Q 3.4770000000000003 1.7926295454545453 3.4790454545454548 1.8533113636363634 Q 3.4817727272727272 1.9214931818181817 3.5151818181818184 1.9511522727272725 Q 3.548590909090909 1.9808113636363636 3.6024545454545454 1.9808113636363636 Q 3.638590909090909 1.9808113636363636 3.6668863636363636 1.967175 Q 3.695181818181818 1.9535386363636362 3.7115454545454547 1.9259249999999999 Q 3.727909090909091 1.8983113636363635 3.727909090909091 1.855356818181818 L 3.727909090909091 1.8267204545454545 L 3.6256363636363638 1.8267204545454545 Q 3.618818181818182 1.8267204545454545 3.614386363636364 1.8222886363636361 Q 3.6099545454545456 1.817856818181818 3.6099545454545456 1.810356818181818 L 3.6099545454545456 1.7885386363636362 Q 3.6099545454545456 1.7810386363636361 3.614386363636364 1.776606818181818 Q 3.618818181818182 1.7721749999999998 3.6256363636363638 1.7721749999999998 L 3.779727272727273 1.7721749999999998 Q 3.787227272727273 1.7721749999999998 3.791318181818182 1.776606818181818 Q 3.795409090909091 1.7810386363636361 3.795409090909091 1.7885386363636362 L 3.795409090909091 1.8539931818181816 Q 3.795409090909091 1.9099022727272725 3.772568181818182 1.9514931818181815 Q 3.749727272727273 1.9930840909090908 3.7060909090909093 2.0159249999999997 Q 3.6624545454545454 2.038765909090909 3.6024545454545454 2.038765909090909 Z M 3.9154090909090913 2.031947727272727 Q 3.907909090909091 2.031947727272727 3.903818181818182 2.027515909090909 Q 3.8997272727272727 2.023084090909091 3.8997272727272727 2.016265909090909 L 3.8997272727272727 1.5710386363636362 Q 3.8997272727272727 1.5635386363636363 3.903818181818182 1.5591068181818182 Q 3.907909090909091 1.5546749999999998 3.9154090909090913 1.5546749999999998 L 3.9467727272727275 1.5546749999999998 Q 3.954954545454546 1.5546749999999998 3.9590454545454548 1.5584249999999997 Q 3.9631363636363637 1.5621749999999999 3.963818181818182 1.5642204545454543 L 4.190181818181818 1.911947727272727 L 4.190181818181818 1.5710386363636362 Q 4.190181818181818 1.5635386363636363 4.194272727272727 1.5591068181818182 Q 4.198363636363636 1.5546749999999998 4.205863636363636 1.5546749999999998 L 4.2385909090909095 1.5546749999999998 Q 4.246090909090909 1.5546749999999998 4.2505227272727275 1.5591068181818182 Q 4.254954545454545 1.5635386363636363 4.254954545454545 1.5710386363636362 L 4.254954545454545 2.0155840909090905 Q 4.254954545454545 2.0224022727272724 4.2505227272727275 2.0271749999999997 Q 4.246090909090909 2.031947727272727 4.239272727272727 2.031947727272727 L 4.206545454545455 2.031947727272727 Q 4.1990454545454545 2.031947727272727 4.195295454545454 2.027856818181818 Q 4.191545454545455 2.023765909090909 4.190181818181818 2.0224022727272724 L 3.9645 1.6780840909090908 L 3.9645 2.016265909090909 Q 3.9645 2.023084090909091 3.960068181818182 2.027515909090909 Q 3.955636363636364 2.031947727272727 3.948136363636364 2.031947727272727 Z" fill="#fbe585" fill-rule="nonzero"></path></g><g clip-path="url(&quot;#SvgjsClipPath1023&quot;)"><path d=" M 0.30506015558283295 -4.493879688834334 L 4.248939844417167 -4.493879688834334 L 4.248939844417167 -0.5499999999999998 L 0.30506015558283295 -0.5499999999999998 Z M 0.38393774935951963 -4.415002095057647 L 0.38393774935951963 -0.6288775937766871 L 4.1700622506404805 -0.6288775937766871 L 4.1700622506404805 -4.415002095057647 Z" fill="#1192dc" transform="matrix(1,0,0,1,0,0)" fill-rule="nonzero"></path><path d=" M 1.6509090993975495 -3.596647059624523 L 1.2170823336257728 -3.2121187899631756 L 1.6509090993975495 -2.827590520301828 L 1.7199269939521502 -2.9064681140785145 L 1.3649778219570603 -3.2121187899631756 L 1.7199269939521502 -3.5177694658478362 Z" fill="#1192dc" transform="matrix(1,0,0,1,0,0)" fill-rule="nonzero"></path><path d=" M 2.114314962835584 -2.827590520301828 L 2.5481417286073604 -3.2121187899631756 L 2.114314962835584 -3.596647059624523 L 2.045297068280983 -3.5177694658478362 L 2.400246240276073 -3.2121187899631756 L 2.045297068280983 -2.9064681140785145 Z" fill="#1192dc" transform="matrix(1,0,0,1,0,0)" fill-rule="nonzero"></path><path d=" M 2.02898764681277 -3.5446001723559375 L 1.831126160733718 -2.852552813807344 L 1.7363251527133625 -2.879657126968858 L 1.9341866387924145 -3.5717044855174516 Z" fill="#1192dc" transform="matrix(1,0,0,1,0,0)" fill-rule="nonzero"></path><path d=" M 2.326298496110429 -1.979656387202446 C 2.326298496110429 -1.952429577137797 2.304226810064649 -1.930357891092017 2.277 -1.930357891092017 C 2.2497731899353512 -1.930357891092017 2.2277015038895707 -1.952429577137797 2.2277015038895707 -1.979656387202446 C 2.2277015038895707 -2.0068831972670953 2.2497731899353512 -2.0289548833128754 2.277 -2.0289548833128754 C 2.304226810064649 -2.0289548833128754 2.326298496110429 -2.0068831972670953 2.326298496110429 -1.979656387202446 Z" fill="#1192dc" transform="matrix(1,0,0,1,0,0)" fill-rule="nonzero"></path><path d=" M 3.5636907484822014 -1.7183743578171717 L 3.292549019874841 -1.7775325531496868 C 3.2728296214306694 -1.8071116508159446 3.2629699222085837 -1.8416205980932445 3.2580400725975407 -1.8810593949815884 L 3.6129892445926304 -1.8810593949815884 L 3.54397135003803 -2.566308490916554 C 3.5193221019828154 -2.793081573024528 3.331987816763185 -2.96562630941103 3.1002848850441675 -2.96562630941103 L 2.8735118029361932 -2.96562630941103 C 2.7897043595484634 -2.96562630941103 2.7157566153828196 -2.911397963689558 2.6861775177165623 -2.8325203699128716 L 2.6763178184944763 -2.8029412722466134 L 2.646738720828219 -2.7881517234134847 C 2.5974402247177895 -2.7635024753582704 2.567861127051532 -2.719133828858884 2.562931277440489 -2.664905483137412 L 2.51363278133006 -1.8810593949815884 L 2.86858195332515 -1.8810593949815884 C 2.863652103714107 -1.8120415004269872 2.8488625548809785 -1.787392252371773 2.8390028556588924 -1.7775325531496868 L 2.562931277440489 -1.7134445082061291 C 2.449544736386502 -1.6887952601509144 2.3706671426098156 -1.590198267930056 2.3706671426098156 -1.4718818772650262 L 2.3706671426098156 -1.0429849611042918 L 2.4692641348306736 -1.0429849611042918 L 2.4692641348306736 -1.4768117268760683 C 2.4692641348306736 -1.545829621430669 2.518562630941103 -1.6049878167631841 2.582650675884661 -1.6197773655963128 L 2.8390028556588924 -1.6789355609288283 L 3.0608460881558237 -1.3486356369889525 L 3.282689320652755 -1.6789355609288283 L 3.5390415004269866 -1.6197773655963128 C 3.608059394981588 -1.6049878167631841 3.652428041480974 -1.545829621430669 3.652428041480974 -1.4768117268760683 L 3.652428041480974 -1.0429849611042918 L 3.7510250337018327 -1.0429849611042918 L 3.7510250337018327 -1.4768117268760683 C 3.7559548833128753 -1.595128117541099 3.677077289536189 -1.693725109761957 3.5636907484822014 -1.7183743578171717 Z M 2.86858195332515 -1.9747265375914034 L 2.622089472773004 -1.9747265375914034 L 2.6664581192723906 -2.6599756335263685 C 2.6664581192723906 -2.6796950319705406 2.6763178184944763 -2.6944845808036693 2.696037216938648 -2.699414430414712 L 2.7601252618822056 -2.7339233776920127 L 2.7798446603263773 -2.79801142263557 C 2.794634209159506 -2.8374502195239137 2.829143156436807 -2.8670293171901715 2.873511802936193 -2.8670293171901715 L 3.100284885044167 -2.8670293171901715 C 3.2777594710417124 -2.8670293171901715 3.425654959373 -2.7339233776920127 3.445374357817171 -2.5564487916944674 L 3.5045325531496867 -1.979656387202446 L 3.2580400725975407 -1.979656387202446 C 3.2580400725975407 -1.989516086424532 3.2580400725975407 -1.9993757856466177 3.2629699222085837 -2.0043056352576607 L 3.2728296214306694 -2.0141653344797468 C 3.327057967152142 -2.068393680201219 3.366496764040485 -2.1423414243668626 3.371426613651528 -2.226148867754592 L 3.3862161624846565 -2.3740443560858795 L 3.3566370648183987 -2.6156069870269825 L 2.7749148107153343 -2.674765182359497 L 2.7453357130490774 -2.3740443560858795 L 2.7601252618822056 -2.226148867754592 C 2.7699849611042917 -2.147271273977905 2.804493908381592 -2.0733235298122614 2.858722254103064 -2.0141653344797468 L 2.86858195332515 -2.0043056352576607 C 2.86858195332515 -1.9944459360355746 2.86858195332515 -1.984586236813489 2.86858195332515 -1.9747265375914034 Z M 3.0657759377668667 -1.5261102229864978 L 2.932669998268708 -1.7282340570392574 C 2.9573192463239226 -1.7676728539276003 2.9721087951570513 -1.8268310492601159 2.9770386447680943 -1.9057086430368022 C 3.0016878928233086 -1.890919094203674 3.0312669904895664 -1.881059394981588 3.0608460881558237 -1.881059394981588 L 3.0756356369889524 -1.881059394981588 C 3.10521473465521 -1.881059394981588 3.1347938323214675 -1.890919094203674 3.159443080376682 -1.9057086430368022 C 3.159443080376682 -1.8416205980932445 3.174232629209811 -1.7824624027607294 3.203811726876068 -1.7331639066503004 L 3.0657759377668667 -1.5261102229864978 Z M 3.110144584266253 -1.9944459360355746 C 3.100284885044167 -1.984586236813489 3.0904251858220815 -1.979656387202446 3.0756356369889524 -1.979656387202446 L 3.0608460881558237 -1.979656387202446 C 3.046056539322695 -1.979656387202446 3.0361968401006094 -1.984586236813489 3.0263371408785233 -1.9944459360355746 L 2.927740148657665 -2.08811307864539 C 2.888301351769322 -2.1275518755337335 2.863652103714107 -2.1817802212552055 2.858722254103064 -2.2360085669766776 L 2.8439327052699355 -2.3740443560858795 L 2.863652103714107 -2.566308490916553 L 3.2678997718196263 -2.5268696940282096 L 3.287619170263798 -2.3740443560858795 L 3.2728296214306694 -2.236008566976678 C 3.2678997718196263 -2.181780221255206 3.2432505237644116 -2.127551875533734 3.203811726876068 -2.0881130786453905 L 3.110144584266253 -1.9944459360355746 Z" fill="#1192dc" transform="matrix(1,0,0,1,0,0)" fill-rule="nonzero"></path><path d=" M 0.7980451166871247 -4.000894727730042 L 0.7980451166871247 -1.7331639066503004 L 1.9812090233374249 -1.7331639066503004 L 1.9812090233374249 -1.3387759377668669 L 1.6854180466748498 -1.3387759377668669 L 1.6854180466748498 -1.0429849611042918 L 2.277 -1.0429849611042918 L 2.277 -1.1415819533251503 L 1.7840150388957083 -1.1415819533251503 L 1.7840150388957083 -1.2401789455460084 L 2.277 -1.2401789455460084 L 2.277 -1.3387759377668669 L 2.079806015558283 -1.3387759377668669 L 2.079806015558283 -1.7331639066503004 L 2.375596992220858 -1.7331639066503004 L 2.375596992220858 -1.8317608988711584 L 0.896642108907983 -1.8317608988711584 L 0.896642108907983 -2.127551875533734 L 2.4347551875533737 -2.127551875533734 L 2.4396850371644163 -2.226148867754592 L 1.0938360933496998 -2.226148867754592 L 1.0938360933496998 -3.705103751067467 L 3.4601639066503003 -3.705103751067467 L 3.4601639066503003 -2.9311173621337296 C 3.4996027035386437 -2.896608414856429 3.5291818012049014 -2.862099467579129 3.5587608988711588 -2.817730821079742 L 3.5587608988711588 -3.8037007432883256 L 0.9952391011288414 -3.8037007432883256 L 0.9952391011288414 -2.226148867754592 L 0.896642108907983 -2.226148867754592 L 0.896642108907983 -3.902297735509184 L 3.657357891092017 -3.902297735509184 L 3.657357891092017 -2.4282727018073516 L 3.711586236813489 -1.881059394981588 L 3.7559548833128753 -1.881059394981588 L 3.7559548833128753 -4.000894727730042 L 0.7980451166871247 -4.000894727730042 Z" fill="#1192dc" transform="matrix(1,0,0,1,0,0)" fill-rule="nonzero"></path></g></g><defs><clipPath id="SvgjsClipPath1023"><path d=" M 0.30506015558283295 -4.493879688834334 h 3.9438796888343344 v 3.9438796888343344 h -3.9438796888343344 Z"></path></clipPath></defs></svg>